# xmcd
#
# Track frame offsets: 
#        150
#        2129
#        21396
#        39339
#        62040
#        89797
#        108233
#        136787
#        154300
#        177723
#        207814
#        235634
#        251626
#        277759
#        296997
#        319290
#        338869
#
# Disc length: 4798 seconds
#
# Revision: 0
# Processed by: cddbd v1.5.2PL0 Copyright (c) Steve Scherf et al.
# Submitted via: ExactAudioCopy v0.95b3
#
DISCID=f912bc11
DTITLE=Zach Walther - Live at Tavern in The Gruene
DYEAR=2007
DGENRE=Country
TTITLE0=Intro
TTITLE1=So Easy
TTITLE2=Which Way To Run
TTITLE3=What A Day
TTITLE4=I'm In
TTITLE5=With You In Rome
TTITLE6=Get Up
TTITLE7=Instant Karma
TTITLE8=To Get To You
TTITLE9=Middle Of July
TTITLE10=Walls Of Time
TTITLE11=Spinning Away
TTITLE12=Can You Hear Me
TTITLE13=Wrapped For Me
TTITLE14=Our Corner
TTITLE15=Wrapped For Me(Studio version)
TTITLE16=Our Corner
EXTD=
EXTT0=
EXTT1=
EXTT2=
EXTT3=
EXTT4=
EXTT5=
EXTT6=
EXTT7=
EXTT8=
EXTT9=
EXTT10=
EXTT11=
EXTT12=
EXTT13=
EXTT14=
EXTT15=
EXTT16=
PLAYORDER=
